<svg width="41" height="41" viewBox="0 0 41 41" fill="none" xmlns="http://www.w3.org/2000/svg">
<g id="Box Icon">
<path id="Rectangle 1" d="M2.99121 13.5625L19.5091 21.4911L18.518 38.0089L9.268 32.3928L5.30371 29.75L2.99121 28.4286V13.5625Z" fill="url(#paint0_linear_4407_1343)"/>
<g id="Group 1">
<path id="Vector" d="M27.1187 4.55664L30.8187 6.49831C34.7994 8.58722 36.7896 9.63168 37.8948 11.5085C39 13.3854 39 15.7208 39 20.3918V20.6082C39 25.2791 39 27.6147 37.8948 29.4916C36.7896 31.3684 34.7994 32.4127 30.8187 34.5017L27.1187 36.4433C23.8709 38.1477 22.247 39 20.5 39C18.753 39 17.1291 38.1477 13.8812 36.4433L10.1812 34.5017C6.20067 32.4127 4.21036 31.3684 3.10519 29.4916C2 27.6147 2 25.2791 2 20.6082V20.3918C2 15.7208 2 13.3854 3.10519 11.5085C4.21036 9.63168 6.20067 8.58722 10.1812 6.49831L13.8812 4.55664C17.1291 2.85222 18.753 2 20.5 2C22.247 2 23.8709 2.85222 27.1187 4.55664Z" stroke="white" stroke-width="4" stroke-linecap="round"/>
<path id="Vector_2" d="M37.1496 12.1746L20.4996 20.4996M20.4996 20.4996L3.84961 12.1746M20.4996 20.4996V29.2871V38.0745" stroke="white" stroke-width="4" stroke-linecap="round"/>
</g>
</g>
<defs>
<linearGradient id="paint0_linear_4407_1343" x1="11.2501" y1="13.5625" x2="11.2501" y2="38.0089" gradientUnits="userSpaceOnUse">
<stop stop-color="#6262D9" stop-opacity="0.85098"/>
<stop offset="1" stop-color="#9D62D9"/>
</linearGradient>
</defs>
</svg>
