<svg width="38" height="39" viewBox="0 0 38 39" fill="none" xmlns="http://www.w3.org/2000/svg">
<g id="Connect button">
<path id="Vector 1" d="M19.5 4L5.5 12V26L19.5 33.5L33 26V12L19.5 4Z" fill="url(#paint0_linear_4413_485)" stroke="black"/>
<path id="Connect Icon" d="M34.2 21.8899V16.7218C36.3812 16.1836 38 14.3121 38 12.0653C38 9.39983 35.7314 7.23872 32.9333 7.23872C31.4741 7.23872 30.1695 7.8348 29.2448 8.77479L23.8995 5.99707C23.9983 5.62059 24.0667 5.23326 24.0667 4.82661C24.0667 2.16112 21.7981 0 19 0C16.2019 0 13.9333 2.16112 13.9333 4.82661C13.9333 5.23326 14.0017 5.62059 14.1005 5.99828L8.7552 8.77599C7.83053 7.83601 6.52587 7.23992 5.06667 7.23992C2.2686 7.23992 0 9.40104 0 12.0665C0 14.3133 1.6188 16.1836 3.8 16.723V21.8911C1.6188 22.4281 0 24.2996 0 26.5464C0 29.2119 2.2686 31.373 5.06667 31.373C6.52587 31.373 7.83053 30.7769 8.7552 29.8369L14.1005 32.6146C14.0017 32.9923 13.9333 33.3797 13.9333 33.7863C13.9333 36.4518 16.2019 38.6129 19 38.6129C21.7981 38.6129 24.0667 36.4518 24.0667 33.7863C24.0667 33.3797 23.9983 32.9923 23.8995 32.6146L29.2448 29.8369C30.1695 30.7769 31.4741 31.373 32.9333 31.373C35.7314 31.373 38 29.2119 38 26.5464C38 24.2996 36.3812 22.4281 34.2 21.8899ZM22.6885 30.4958C21.7639 29.5558 20.4592 28.9597 19 28.9597C17.5408 28.9597 16.2361 29.5558 15.3115 30.4958L9.96613 27.718C10.0649 27.3404 10.1333 26.953 10.1333 26.5464C10.1333 24.2996 8.51453 22.4281 6.33333 21.8899V16.7218C8.51453 16.1836 10.1333 14.3133 10.1333 12.0665C10.1333 11.6599 10.0649 11.2726 9.96613 10.8949L15.3115 8.11716C16.2361 9.05714 17.5408 9.65323 19 9.65323C20.4592 9.65323 21.7639 9.05714 22.6885 8.11716L28.0339 10.8949C27.9351 11.2726 27.8667 11.6599 27.8667 12.0665C27.8667 14.3133 29.4855 16.1836 31.6667 16.723V21.8911C29.4855 22.4293 27.8667 24.3008 27.8667 26.5476C27.8667 26.9542 27.9351 27.3416 28.0339 27.7192L22.6885 30.4958Z" fill="white"/>
</g>
<defs>
<linearGradient id="paint0_linear_4413_485" x1="19.25" y1="4" x2="19.25" y2="33.5" gradientUnits="userSpaceOnUse">
<stop stop-color="#6262D9" stop-opacity="0.85098"/>
<stop offset="1" stop-color="#9D62D9"/>
</linearGradient>
</defs>
</svg>
