<svg width="50" height="42" viewBox="0 0 50 42" fill="none" xmlns="http://www.w3.org/2000/svg">
<g id="Group">
<path id="Vector" d="M17.916 0.285792C17.9566 0.488505 19.4972 2.06966 21.3621 3.81299L24.7677 7.0564L28.1733 3.81299C30.0382 2.06966 31.5788 0.488505 31.6194 0.285792C31.6194 0.123622 28.6192 0.285792 24.8082 0.285792C21.0378 0.285792 17.916 0.123622 17.916 0.285792Z" fill="#685AB3"/>
<path id="Vector_2" d="M45.5268 3.77042L41.7969 7.50033V24.2444V40.9479H45.6484H49.5V20.4739C49.5 9.20311 49.4594 -2.97197e-05 49.3783 -2.97197e-05C49.3378 -2.97197e-05 47.5945 1.70275 45.5268 3.77042Z" fill="#615DEC"/>
<path id="Vector_3" d="M0.08111 20.9784L0 41.251H2.75774C5.15049 41.251 4.40026 41.251 5.61691 41.251L7.74601 39.0615V23.5733V8.0851L4.0555 4.3955C2.02775 2.36824 0.32444 0.705894 0.283885 0.705894C0.24333 0.705894 0.16222 9.82854 0.08111 20.9784Z" fill="#301781"/>
<path id="Vector_4" d="M10.5762 22.4608V34.2587L14.4277 30.4071L18.2792 26.5556V22.5419V18.4876L14.4277 14.555L10.5762 10.6629V22.4608Z" fill="#543F94"/>
<path id="Vector_5" d="M35.0273 16.0142L31.2568 19.7847V30.3663V40.9479H35.1084H38.9599V26.5553C38.9599 18.6495 38.9194 12.1627 38.8788 12.2032C38.7977 12.2032 37.0544 13.906 35.0273 16.0142Z" fill="#7B77E9"/>
<path id="Vector_6" d="M20.8037 21.8935V24.4476L22.0605 23.1503L23.3579 21.8935L22.0605 20.6366L20.8037 19.3393V21.8935Z" fill="#796AA9"/>
<path id="Vector_7" d="M24.8471 24.4471L21.1172 28.177V34.5827V40.9479H24.8876H28.6176V30.8122C28.6176 25.2174 28.6176 20.6766 28.6176 20.6766C28.6176 20.6766 26.9148 22.3794 24.8471 24.4471Z" fill="#9591E6"/>
<path id="Vector_8" d="M13.2128 36.0828L8.34766 40.9479H13.3344H18.2806V36.0828C18.2806 33.407 18.24 31.2177 18.1589 31.2177C18.1184 31.2177 15.8886 33.407 13.2128 36.0828Z" fill="#6351A7"/>
</g>
</svg>
